<svg width="40" height="40" viewBox="0 0 40 40" fill="none" xmlns="http://www.w3.org/2000/svg">
<path d="M20 2.11666C15.6245 2.08617 11.3824 3.6216 8.04012 6.44556C4.69781 9.26951 2.47573 13.1957 1.77532 17.5149C1.07492 21.8341 1.94239 26.2613 4.221 29.9968C6.49962 33.7322 10.0391 36.5295 14.2 37.8833C15.1167 38.0333 15.4167 37.4167 15.4167 36.9667V33.9C10.3667 34.9667 9.3 31.4667 9.3 31.4667C8.38333 29.3167 7.16667 28.7167 7.16667 28.7167C5.63333 27.6333 7.33333 27.6333 7.33333 27.6333C9.16667 27.6333 10.2167 29.4667 10.2167 29.4667C11.75 32.2167 14.5 31.4667 15.5667 31C15.5658 30.5401 15.6602 30.0851 15.8438 29.6634C16.0273 29.2418 16.2962 28.8627 16.6333 28.55C12.5167 28.1 8.23333 26.5667 8.23333 19.3833C8.23333 17.55 9 15.8833 10.2333 14.65C9.9065 13.8774 9.73809 13.0472 9.73809 12.2083C9.73809 11.3695 9.9065 10.5392 10.2333 9.76666C10.2333 9.76666 11.75 9.29999 15.4167 11.6C18.4167 10.7833 21.5833 10.7833 24.5833 11.6C28.0833 9.29999 29.6167 9.76666 29.6167 9.76666C29.9435 10.5392 30.1119 11.3695 30.1119 12.2083C30.1119 13.0472 29.9435 13.8774 29.6167 14.65C31 15.8833 31.6167 17.55 31.6167 19.55C31.6167 26.5667 27.3333 28.1 23.2167 28.55C23.9667 29.1667 24.5833 30.0833 24.5833 31.9167V36.9667C24.5833 37.4167 24.75 38.0333 25.8 37.8833C29.9609 36.5295 33.5004 33.7322 35.779 29.9968C38.0576 26.2613 38.9251 21.8341 38.2247 17.5149C37.5243 13.1957 35.3022 9.26951 31.9599 6.44556C28.6176 3.6216 24.3755 2.08617 20 2.11666Z" fill="#979797"/>
</svg>
