<svg width="26" height="26" viewBox="0 0 26 26" fill="none" xmlns="http://www.w3.org/2000/svg">
<path d="M12.3906 25.7969C19.1216 25.7969 24.5781 20.3403 24.5781 13.6094C24.5781 6.8784 19.1216 1.42188 12.3906 1.42188C5.65965 1.42188 0.203125 6.8784 0.203125 13.6094C0.203125 20.3403 5.65965 25.7969 12.3906 25.7969Z" fill="#EA4335"/>
<path d="M23.6844 18.1797C24.9437 18.8703 25.7969 20.2109 25.7969 21.7344C25.7969 23.9688 23.9688 25.7969 21.7344 25.7969C20.3938 25.7969 19.2156 25.1469 18.4844 24.1719L23.6844 18.1797Z" fill="#4285F4"/>
<path d="M23.6844 18.1797C23.0953 17.8547 22.4453 17.6719 21.7344 17.6719C19.5 17.6719 17.6719 19.5 17.6719 21.7344C17.6719 22.6484 17.9766 23.4812 18.4844 24.1719C20.8203 22.8109 22.6687 20.6984 23.6844 18.1797Z" fill="#34A853"/>
<path d="M13.4062 12.5938V6.5H11.375V14.625H19.5V12.5938H13.4062Z" fill="#FBBC05"/>
</svg>
