<svg width="24" height="24" viewBox="0 0 24 24" fill="none" xmlns="http://www.w3.org/2000/svg">
<path d="M20.25 5.0775V3.75C20.2483 3.1538 20.0106 2.58251 19.5891 2.16093C19.1675 1.73935 18.5962 1.50174 18 1.5H5.25C4.6538 1.50174 4.08251 1.73935 3.66093 2.16093C3.23935 2.58251 3.00174 3.1538 3 3.75V20.25C3.00174 20.8462 3.23935 21.4175 3.66093 21.8391C4.08251 22.2606 4.6538 22.4983 5.25 22.5H18.75C19.3462 22.4983 19.9175 22.2606 20.3391 21.8391C20.7606 21.4175 20.9983 20.8462 21 20.25V6.75C20.9998 6.43413 20.9328 6.12188 20.8036 5.83366C20.6744 5.54545 20.4857 5.28777 20.25 5.0775ZM5.25 3H18C18.1987 3.00059 18.3892 3.0798 18.5297 3.22033C18.6702 3.36085 18.7494 3.55127 18.75 3.75V4.5H5.25C5.05109 4.5 4.86032 4.42098 4.71967 4.28033C4.57902 4.13968 4.5 3.94891 4.5 3.75C4.5 3.55109 4.57902 3.36032 4.71967 3.21967C4.86032 3.07902 5.05109 3 5.25 3ZM19.5 20.25C19.4994 20.4487 19.4202 20.6392 19.2797 20.7797C19.1392 20.9202 18.9487 20.9994 18.75 21H7.5V6H13.5V10.5C13.4994 10.6282 13.5319 10.7544 13.5942 10.8664C13.6566 10.9785 13.7467 11.0725 13.856 11.1396C13.9653 11.2067 14.09 11.2445 14.2181 11.2494C14.3462 11.2543 14.4734 11.2261 14.5875 11.1675L15.75 10.59L16.9125 11.1675C17.0173 11.2203 17.1327 11.2485 17.25 11.25C17.3903 11.2499 17.5279 11.211 17.6475 11.1375C17.7556 11.07 17.8448 10.976 17.9065 10.8645C17.9681 10.7529 18.0003 10.6275 18 10.5V6H18.75C18.9487 6.00059 19.1392 6.0798 19.2797 6.22033C19.4202 6.36085 19.4994 6.55127 19.5 6.75V20.25Z" fill="black"/>
<path d="M17.25 17.25H9.75V18.75H17.25V17.25Z" fill="black"/>
<path d="M17.25 14.25H9.75V15.75H17.25V14.25Z" fill="black"/>
</svg>
