<svg width="24" height="22" viewBox="0 0 24 22" fill="none" xmlns="http://www.w3.org/2000/svg">
<path d="M9.31 15.5833L11.75 13.3466L14.19 15.5833L15.25 14.6116L12.81 12.375L15.25 10.1383L14.19 9.16663L11.75 11.4033L9.31 9.16663L8.25 10.1383L10.69 12.375L8.25 14.6116L9.31 15.5833ZM19 2.74996H18V0.916626H16V2.74996H8V0.916626H6V2.74996H5C3.89 2.74996 3.01 3.57496 3.01 4.58329L3 17.4166C3 18.425 3.89 19.25 5 19.25H19C20.1 19.25 21 18.425 21 17.4166V4.58329C21 3.57496 20.1 2.74996 19 2.74996ZM19 17.4166H5V7.33329H19V17.4166Z" fill="black"/>
</svg>
