<svg width="24" height="22" viewBox="0 0 24 22" fill="none" xmlns="http://www.w3.org/2000/svg">
<path d="M23 19.9284L21.54 18.5901L7.20999 5.45422L3.24999 1.82422L1.98999 2.97922L4.68999 5.45422H4.04999C2.93999 5.45422 2.05999 6.27005 2.05999 7.28755L2.04999 17.3709C2.04999 18.3884 2.93999 19.2042 4.04999 19.2042H19.69L21.74 21.0834L23 19.9284ZM22 7.28755C22.05 6.27005 21.16 5.45422 20.05 5.50005H16.05V3.62089C16.05 2.60339 15.16 1.78755 14.05 1.83339H10.05C8.93999 1.78755 8.04999 2.60339 8.04999 3.62089V3.91422L22 16.7476V7.28755ZM14.05 5.50005H9.99999V3.62089H14.05V5.50005Z" fill="black"/>
</svg>
