<svg width="23" height="22" viewBox="0 0 23 22" fill="none" xmlns="http://www.w3.org/2000/svg">
<path d="M4.01335 12.8236C4.79673 9.09555 8.07156 6.44663 11.7553 6.44663C15.4379 6.44663 18.7127 9.09555 19.4973 12.8236C19.5283 12.9716 19.6174 13.1012 19.745 13.184C19.8725 13.2669 20.028 13.2961 20.1773 13.2653C20.3266 13.2345 20.4574 13.1462 20.541 13.0198C20.6245 12.8934 20.654 12.7393 20.623 12.5914C19.7305 8.35108 15.9973 5.30829 11.7553 5.30829C7.51331 5.30829 3.78017 8.35108 2.88766 12.5914C2.85659 12.7393 2.88609 12.8934 2.96967 13.0198C3.05325 13.1462 3.18407 13.2345 3.33334 13.2653C3.48262 13.2961 3.63812 13.2669 3.76565 13.184C3.89317 13.1012 3.98228 12.9716 4.01335 12.8236ZM11.7438 8.72331C12.8101 8.72331 13.8327 9.14308 14.5866 9.89026C15.3406 10.6374 15.7641 11.6508 15.7641 12.7075C15.7641 13.7642 15.3406 14.7776 14.5866 15.5248C13.8327 16.2719 12.8101 16.6917 11.7438 16.6917C10.6776 16.6917 9.65499 16.2719 8.90104 15.5248C8.14709 14.7776 7.72352 13.7642 7.72352 12.7075C7.72352 11.6508 8.14709 10.6374 8.90104 9.89026C9.65499 9.14308 10.6776 8.72331 11.7438 8.72331Z" fill="#6A707C"/>
</svg>
