<svg width="24" height="22" viewBox="0 0 24 22" fill="none" xmlns="http://www.w3.org/2000/svg">
<path d="M18 10.0833C19.49 10.0833 20.87 10.5141 22 11.2383V7.33331C22 6.31581 21.11 5.49998 20 5.49998H16V3.66665C16 2.64915 15.11 1.83331 14 1.83331H10C8.89 1.83331 8 2.64915 8 3.66665V5.49998H4C2.89 5.49998 2.01 6.31581 2.01 7.33331L2 17.4166C2 18.4341 2.89 19.25 4 19.25H11.68C11.25 18.4158 11 17.49 11 16.5C11 12.9525 14.13 10.0833 18 10.0833ZM10 3.66665H14V5.49998H10V3.66665Z" fill="black"/>
<path d="M18 11.9167C15.24 11.9167 13 13.97 13 16.5C13 19.03 15.24 21.0834 18 21.0834C20.76 21.0834 23 19.03 23 16.5C23 13.97 20.76 11.9167 18 11.9167ZM19.65 18.6542L17.5 16.6834V13.75H18.5V16.3075L20.35 18.0034L19.65 18.6542V18.6542Z" fill="black"/>
</svg>
