<svg width="15" height="15" viewBox="0 0 15 15" fill="none" xmlns="http://www.w3.org/2000/svg">
<path d="M14.5833 3.05155L11.325 0.317383L10.4113 1.40113L13.6696 4.1353L14.5833 3.05155ZM4.58167 1.40113L3.675 0.317383L0.416672 3.04447L1.33042 4.12822L4.58167 1.40113ZM7.85417 4.66655H6.79167V8.91655L10.1563 10.9353L10.6875 10.064L7.85417 8.3853V4.66655ZM7.5 1.83322C3.97959 1.83322 1.12501 4.6878 1.12501 8.20822C1.12501 11.7286 3.9725 14.5832 7.5 14.5832C11.0204 14.5832 13.875 11.7286 13.875 8.20822C13.875 4.6878 11.0204 1.83322 7.5 1.83322ZM7.5 13.1665C4.75876 13.1665 2.54167 10.9495 2.54167 8.20822C2.54167 5.46697 4.75876 3.24988 7.5 3.24988C10.2413 3.24988 12.4583 5.46697 12.4583 8.20822C12.4583 10.9495 10.2413 13.1665 7.5 13.1665Z" fill="#666666"/>
</svg>
